# xmcd
#
# Track frame offsets: 
#        150
#        23765
#        31835
#        43639
#        60570
#        73987
#        87470
#        98622
#        114112
#        128930
#        140917
#        154702
#
# Disc length: 2451 seconds
#
# Revision: 4
# Processed by: cddbd v1.5.2PL0 Copyright (c) Steve Scherf et al.
# Submitted via: ExactAudioCopy v0.99pb4
#
DISCID=9e09910c
DTITLE=Various Artist - Eve's Bayou - The Collection
DYEAR=1997
DGENRE=Soundtrack
TTITLE0=Erykah Badu/A Child with the Blues
TTITLE1=Jimmy Radcliffe/I Pretend I'm Loving You
TTITLE2=Bobby ''Blue'' Bland/Turn on Your Love Light
TTITLE3=Ray Charles/Don't Let the Sun Catch You Crying
TTITLE4=Johnny Ace/Anymore
TTITLE5=Bobby 'Blue' Bland/Farther Up the Road
TTITLE6=Sugar Boy Crawford/Overboard
TTITLE7=Geno Delafose/C'est Pas La Peine Brailler
TTITLE8=Etta James/Sunday Kind of Love
TTITLE9=Louis Armstrong with Velma Middleton/Trouble in Mind
TTITLE10=The Utah Film Orchestra/Eve's Blossom
TTITLE11=Erykah Badu/A Child with the Blues (Izm mix)
EXTD=
EXTT0=
EXTT1=
EXTT2=
EXTT3=
EXTT4=
EXTT5=
EXTT6=
EXTT7=
EXTT8=
EXTT9=
EXTT10=
EXTT11=
PLAYORDER=
